<svg xmlns="http://www.w3.org/2000/svg" width="512" height="512" viewBox="0 0 512 512">
  <defs>
    <linearGradient id="bg" x1="0" y1="0" x2="1" y2="1">
      <stop offset="0" stop-color="#170b2e"/>
      <stop offset="1" stop-color="#0a0714"/>
    </linearGradient>
    <linearGradient id="mic" x1="0" y1="0" x2="0" y2="1">
      <stop offset="0" stop-color="#ff2ea6"/>
      <stop offset="1" stop-color="#ffc84d"/>
    </linearGradient>
  </defs>
  <rect width="512" height="512" rx="112" fill="url(#bg)"/>
  <!-- sparkles -->
  <path d="M120 150 L130 178 L158 188 L130 198 L120 226 L110 198 L82 188 L110 178 Z" fill="#00e6c3" opacity="0.9"/>
  <path d="M392 300 L399 320 L419 327 L399 334 L392 354 L385 334 L365 327 L385 320 Z" fill="#00e6c3" opacity="0.75"/>
  <!-- microphone -->
  <rect x="211" y="128" width="90" height="150" rx="45" fill="url(#mic)"/>
  <path d="M172 246 C172 306 216 348 256 348 C296 348 340 306 340 246" stroke="#f5f2ff" stroke-width="16" fill="none" stroke-linecap="round"/>
  <rect x="246" y="348" width="20" height="52" rx="8" fill="#f5f2ff"/>
  <rect x="206" y="392" width="100" height="18" rx="9" fill="#f5f2ff"/>
  <!-- blade accent -->
  <path d="M336 176 L378 134 L390 146 L348 188 Z" fill="#00e6c3"/>
</svg>
