<svg xmlns="http://www.w3.org/2000/svg" width="512" height="512" viewBox="0 0 512 512">
  <defs>
    <linearGradient id="bg" x1="0" y1="0" x2="1" y2="1">
      <stop offset="0" stop-color="#3a2418"/>
      <stop offset="1" stop-color="#1c120b"/>
    </linearGradient>
    <linearGradient id="ac" x1="0" y1="0" x2="1" y2="1">
      <stop offset="0" stop-color="#f4b942"/>
      <stop offset="1" stop-color="#e0793c"/>
    </linearGradient>
  </defs>
  <rect width="512" height="512" rx="112" fill="url(#bg)"/>
  <!-- Cake base -->
  <path d="M146 300 L366 300 L382 392 C382 408 322 420 256 420 C190 420 130 408 130 392 Z" fill="url(#ac)"/>
  <rect x="146" y="272" width="220" height="34" rx="10" fill="#fff4e0"/>
  <path d="M150 272 C150 246 172 246 178 268 C184 246 206 246 206 272" stroke="#fff4e0" stroke-width="10" fill="none" stroke-linecap="round"/>
  <path d="M230 272 C230 246 252 246 258 268 C264 246 286 246 286 272" stroke="#fff4e0" stroke-width="10" fill="none" stroke-linecap="round"/>
  <path d="M310 272 C310 246 332 246 338 268 C344 246 366 246 366 272" stroke="#fff4e0" stroke-width="10" fill="none" stroke-linecap="round"/>
  <!-- Candle -->
  <rect x="246" y="188" width="20" height="56" rx="6" fill="#fff4e0"/>
  <path d="M256 152 C270 172 270 188 256 196 C242 188 242 172 256 152 Z" fill="#f4b942"/>
</svg>
